<svg id="Layer_1" data-name="Layer 1" xmlns="http://www.w3.org/2000/svg" viewBox="0 0 1000 1000"><defs><style>.cls-1{fill:#a81e36;}</style></defs><path class="cls-1" d="M424.1,195.68s22,24.36,22,81.11C446.09,357.18,357,421,357,503.07c0,99.08,57.69,130.29,57.69,172.38,0,19.62-5.67,27.43-5.67,27.43s-89.62-75.43-89.62-177.11c0-92.21,57.93-142.58,84.18-181.12,19.39-28.14,20.33-34.29,18.2-38.07,0,0-7.56-12.29-7.56-30.5,0-18,12.29-44.22,12.29-59.35.48-13.48-2.36-21-2.36-21M620.83,370.19c-5.2-7.81-47.06-18.92-61-20.1l-4.49,21s14.19,2.37,33.34,12.3c23.65,12.53,28.14,22.7,28.14,22.7s9.22-27,4-35.94M607.35,700s7.09-22.46,5.67-42.8c-2.36-41.61-21.75-59.35-68.8-107.82-25.54-26-15.61-57.7-15.61-57.7s-36.41-13.47-29.08-42.08c4-17,23.17-18.68,39.72-20.81,43.75-4.73,45.4-23.18,49.18-32.16,0,0,23.18,13,17.26,31.45-5.67,18.68-24.82,18.68-33.57,18-11.11-.95-45.4-7.8-50.13,7.09-4.49,13.95,11.59,27.43,39,35,40.43,10.4,56-3.08,56-3.08s-.7,15.37-7.09,21c-7.09,6.38-23.17,4.73-23.17,4.73s-10.41,13.47,14,30.26c17,11.59,53,24.12,53,70.23.48,52.49-46.34,88.67-46.34,88.67M534.76,469s9.46-12.29,28.61-10.87c21.75,1.65,35.7,1.65,50.84-2.13,28.84-7.57,39.72-22.7,39.72-22.7s-10.4,24.35-34.52,35.94c-11.59,5.68-28.85,7.8-47.76,2.37-30-8.28-36.89-2.61-36.89-2.61m12.29-88.43c11.59,1.66,25.78,7.09,31.22,10.17,0,0-.71,12.29-11.59,18.91-10.88,6.86-25.77,7.57-40.43,9.94C509,422,492,430,488.65,445.62c-8,35.23,28.14,53,28.14,53s-8,30.27,21.75,60.77c44.22,44.69,63.14,63.37,63.14,102.38,0,75-79.45,142.59-79.45,142.59s41.14-50.13,41.14-110.19c0-53.68-29.79-66.92-52.26-86.07-18.91-16.32-34.28-37.36-36.41-81.81-3.78,22.7-15.84,32.63-15.84,57.69,0,18.68,6.38,31.45,6.38,31.45s-43.51-26.72-43.51-76.61c0-33.58,22.7-65,22.7-88.44-7.09,24.36-40.67,49.19-40.67,95.77,0,40.43,18.21,65.73,18.21,65.73s-50.6-37.59-50.6-107.58c0-63.37,57.69-120.36,57.69-120.36s-3.78-39,19.39-39c13.95,0,17.74,11.58,17.74,11.58s37.36-14,82.76-7.56L545.16,369l-8.75-.94a43.24,43.24,0,0,1,.71,6.15,14.19,14.19,0,0,1-28.37,0,13.55,13.55,0,0,1,2.6-8c-16.55-.71-49.89,4.49-49.89,6.15,0,.94,23.17.23,35.94,2.36a25.28,25.28,0,0,0,25.54,25.54,26.26,26.26,0,0,0,24.11-19.63M472.57,670.25a8.28,8.28,0,1,1,8,8.51,8.55,8.55,0,0,1-8-8.51m-35.23,58.16a51.86,51.86,0,0,1,12.3-6.85c6.14-2.13,12.53-4.5,16.55-9.46,4-5.2,6.38-12.53,7.56-17,.95-4.49,1.42-8.74,6.86-9.45,5.44.94,6.15,5.43,6.86,9.93a46,46,0,0,0,6.86,17.26c3.78,5.44,10.16,7.8,16.31,10.17a58,58,0,0,1,12.3,7.09s-2.37-7.57-2.37-14c-.23-6.39-.23-13.24-4-18.68a43.86,43.86,0,0,0-13.95-12.3c-3.78-2.12-7.8-4-6.86-9.46,2.6-5.2,6.86-3.78,11.12-3.07a43.94,43.94,0,0,0,18.68-1.42c6.38-2.13,10.4-7.56,14.66-12.29a50.76,50.76,0,0,1,10.4-9.46,64.06,64.06,0,0,1-14.19-2.13c-6.14-1.65-13-4-18.91-2.13-6.39,2.13-13,6.39-15.84,9.22-3.32,3.08-6.15,6.15-11.12,3.79-4-4-1.42-7.81.24-11.83a43.54,43.54,0,0,0,4.49-18c0-6.38-3.78-12.29-7.09-17.73a69.93,69.93,0,0,1-5.68-13,55.67,55.67,0,0,1-6.15,13c-3.78,5.44-7.8,10.88-7.8,17.26a46.92,46.92,0,0,0,4,18c1.66,4,4,7.8,0,11.82-5.2,2.37-7.8-.94-10.88-4a46.71,46.71,0,0,0-15.6-9.93c-6.15-2.12-13-.23-18.92,1.42a56.75,56.75,0,0,1-13.95,1.42,87.91,87.91,0,0,1,9.93,9.93c4,5.2,8,10.41,14.19,13,6.15,2.13,14,2.36,18.21,2.13,4.49-.24,8.75-1.42,11.11,3.78.71,5.44-3.31,7.09-7.09,9.22a56.1,56.1,0,0,0-14.19,11.82c-4,5.2-4,12.3-4.73,18.68a122.71,122.71,0,0,1-3.31,13.24M647.07,514a7.1,7.1,0,1,1,7.1,7.09c-3.79-.23-7.1-3.31-7.1-7.09m33.34-17.73a14.66,14.66,0,0,1-3.07.71,7.1,7.1,0,0,1,0-14.19l1.42-.24a172.75,172.75,0,0,0-9.93-34.28c0,3.07-1,7.09-3.79,9.45-5.67,4.73-17.26,11.59-8,24.36,5.2,7.09,4.49,9.46,2.12,11.59-3.31,3.07-7.09,0-11.11-4-6.86-6.39-11.59-7.81-17.26-3.79-6.86,4.73-5.2,11.12-3.78,16.55a40.64,40.64,0,0,1,2.12,10.41c-.23,4.49-.23,5.2-2.12,10.4-1.66,5.44-3.31,11.83,3.78,16.55,5.67,3.79,10.4,2.37,17.26-3.78,4.49-4,8-6.86,11.11-4,2.6,2.37,3.08,4.73-2.12,11.82-9.23,13,2.36,19.63,8,24.36,2.61,2.36,3.79,6.38,3.79,9.46A170.7,170.7,0,0,0,678.76,543h-1.42a7.09,7.09,0,0,1,0-14.18,6.44,6.44,0,0,1,3.07.71l.24-8.52a15.24,15.24,0,0,1-3.78.71,9.22,9.22,0,0,1,0-18.44,9.83,9.83,0,0,1,3.78.71Z"/></svg>